<svg xmlns="http://www.w3.org/2000/svg" viewBox="0 0 264 219.34"><defs><style>.cls-1{fill:none;stroke:#000;stroke-linecap:round;stroke-miterlimit:10;stroke-width:29px;}</style></defs><title>Asset 1</title><g id="Layer_2" data-name="Layer 2"><g id="Layer_1-2" data-name="Layer 1"><line class="cls-1" x1="175.58" y1="204.84" x2="66.75" y2="204.84"/><path class="cls-1" d="M66.75,98.34h41.79s.07-.09.09-.13l.07-.16c.06-.1.11-.21.16-.31l.31-.63.65-1.24c.22-.42.44-.83.67-1.23l.69-1.22.72-1.2c.24-.4.49-.79.74-1.19s.5-.78.75-1.17l.78-1.16.8-1.14.82-1.12.84-1.11.87-1.09.88-1.08c.29-.36.6-.71.9-1.06s.61-.7.92-1,.62-.69.94-1,.63-.68,1-1l1-1,1-1,1-.95,1-.93,1-.92,1.07-.89c.35-.29.72-.59,1.08-.87l1.1-.86,1.11-.83c.38-.28.75-.55,1.13-.81l1.15-.8,1.16-.77,1.18-.75,1.19-.73,1.21-.7,1.22-.69,1.24-.66,1.25-.64c.41-.21.84-.41,1.26-.61l1.27-.59q.65-.3,1.29-.57l1.31-.55,1.31-.52,1.33-.49c.44-.17.89-.32,1.33-.48L152.7,60l1.36-.42,1.38-.4,1.38-.37,1.39-.34,1.41-.32,1.41-.29,1.42-.26,1.44-.24,1.44-.21,1.45-.18c.48-.06,1-.11,1.46-.15l1.46-.13,1.48-.09,1.48-.07,1.49,0h1.18a74.17,74.17,0,0,1,.92,148.33"/><path class="cls-1" d="M67.75,204.84a53.25,53.25,0,0,1,0-106.5"/><path class="cls-1" d="M88,17.25a62.66,62.66,0,0,1,76.05,35.46"/><path class="cls-1" d="M48.88,101.67a62.78,62.78,0,0,1,.54-50.43"/></g></g></svg>